<svg width="60" height="60" viewBox="0 0 60 60" fill="none" xmlns="http://www.w3.org/2000/svg">
<path d="M20.5024 34.3582C20.2159 34.3583 19.9324 34.2993 19.6696 34.1851C18.1471 33.5233 16.843 32.4441 15.9079 31.0724C14.9729 29.7006 14.4451 28.0923 14.3857 26.4333C14.3262 24.7742 14.7374 23.1322 15.5718 21.697C16.4062 20.2618 17.6297 19.0921 19.1009 18.323C20.5721 17.5538 22.231 17.2167 23.8857 17.3507C25.5404 17.4846 27.1234 18.084 28.4518 19.0797C29.7802 20.0754 30.7996 21.4267 31.3924 22.9773C31.9852 24.528 32.127 26.2148 31.8015 27.8427C31.7242 28.2293 31.539 28.5861 31.2675 28.8719C30.319 29.8678 29.5699 31.036 29.0606 32.3134C29.0156 32.426 28.9711 32.5403 28.9272 32.6648C28.7417 33.1795 28.3618 33.6009 27.869 33.8386C27.3763 34.0763 26.8099 34.1112 26.2917 33.9358C26.2138 33.9096 26.1347 33.8845 26.0562 33.8618L26.0517 33.8603C24.4993 33.4051 22.8357 33.5166 21.3579 34.1749C21.0889 34.2957 20.7973 34.3582 20.5024 34.3582Z" fill="url(#paint0_linear_2_670)"/>
<path d="M20.2937 15.2499C19.7882 15.2495 19.2977 15.078 18.9021 14.7634C18.5064 14.4487 18.2289 14.0095 18.1146 13.517L17.5934 11.2717C17.5252 10.9847 17.5144 10.687 17.5615 10.3958C17.6087 10.1046 17.7129 9.8256 17.8683 9.57482C18.0236 9.32404 18.227 9.10643 18.4667 8.9345C18.7064 8.76257 18.9777 8.63971 19.2651 8.57298C19.5524 8.50625 19.8501 8.49697 20.1411 8.54567C20.432 8.59437 20.7105 8.70008 20.9605 8.85674C21.2104 9.0134 21.427 9.21792 21.5976 9.45853C21.7683 9.69915 21.8897 9.97112 21.9549 10.2588L22.4776 12.5039C22.5537 12.8324 22.5547 13.1739 22.4805 13.5028C22.4062 13.8317 22.2587 14.1397 22.0489 14.4037C21.8391 14.6677 21.5724 14.8809 21.2687 15.0274C20.965 15.174 20.6321 15.2501 20.2949 15.2502L20.2937 15.2499Z" fill="url(#paint1_linear_2_670)"/>
<path d="M11.9048 21.2499C11.487 21.25 11.0775 21.1326 10.7233 20.9111L8.76686 19.692C8.51428 19.538 8.29473 19.3354 8.12088 19.0961C7.94703 18.8568 7.82235 18.5853 7.75402 18.2975C7.68569 18.0097 7.67508 17.7112 7.72281 17.4192C7.77053 17.1273 7.87563 16.8477 8.03205 16.5966C8.18847 16.3455 8.39309 16.1279 8.6341 15.9564C8.87511 15.7849 9.14772 15.6628 9.43619 15.5973C9.72465 15.5317 10.0232 15.524 10.3147 15.5745C10.6062 15.625 10.8848 15.7328 11.1343 15.8917L13.0907 17.1105C13.5039 17.3677 13.8221 17.7526 13.9969 18.2068C14.1718 18.6611 14.1938 19.1599 14.0597 19.6278C13.9256 20.0957 13.6427 20.5072 13.2538 20.7999C12.8649 21.0926 12.3912 21.2505 11.9045 21.2499H11.9048Z" fill="url(#paint2_linear_2_670)"/>
<path d="M7.97017 31.946C7.42039 31.9459 6.88984 31.7436 6.47965 31.3775C6.06945 31.0115 5.8083 30.5073 5.74595 29.961C5.68361 29.4148 5.82444 28.8647 6.14159 28.4156C6.45875 27.9666 6.93006 27.6499 7.46569 27.526L9.71077 27.0045C9.99715 26.938 10.2938 26.9285 10.5839 26.9766C10.8739 27.0248 11.1516 27.1295 11.4012 27.285C11.6507 27.4405 11.8672 27.6436 12.0382 27.8827C12.2093 28.1218 12.3316 28.3923 12.3981 28.6787C12.4646 28.965 12.4741 29.2617 12.4259 29.5517C12.3778 29.8418 12.273 30.1195 12.1176 30.369C11.9621 30.6186 11.759 30.8351 11.5199 31.0061C11.2808 31.1772 11.0103 31.2994 10.7239 31.366L8.47853 31.8875C8.31188 31.9264 8.14131 31.946 7.97017 31.946Z" fill="url(#paint3_linear_2_670)"/>
<path d="M30.4681 16.9385C30.0689 16.9382 29.677 16.8311 29.333 16.6284C28.9891 16.4256 28.7056 16.1346 28.512 15.7855C28.3184 15.4363 28.2216 15.0417 28.2318 14.6426C28.242 14.2435 28.3587 13.8543 28.5699 13.5155L29.789 11.5591C29.9438 11.3081 30.1466 11.0901 30.3858 10.9177C30.6251 10.7453 30.896 10.6218 31.1831 10.5545C31.4702 10.4871 31.7678 10.4771 32.0587 10.525C32.3497 10.5729 32.6283 10.6779 32.8786 10.8338C33.1289 10.9898 33.3459 11.1936 33.5172 11.4337C33.6885 11.6737 33.8107 11.9453 33.8767 12.2327C33.9427 12.5201 33.9513 12.8177 33.902 13.1084C33.8527 13.3992 33.7464 13.6773 33.5893 13.9269L32.3705 15.8833C32.1693 16.2064 31.889 16.4729 31.5561 16.6575C31.2232 16.8421 30.8488 16.9389 30.4681 16.9385Z" fill="url(#paint4_linear_2_670)"/>
<path d="M39.1156 51.3248H24.1305C21.2238 51.3248 18.4361 50.1701 16.3808 48.1148C14.3255 46.0594 13.1708 43.2718 13.1708 40.3651C13.1708 37.4584 14.3255 34.6707 16.3808 32.6154C18.4361 30.5601 21.2238 29.4054 24.1305 29.4054C24.6691 29.4051 25.2071 29.4442 25.74 29.5224C26.9482 27.1424 28.7692 25.1276 31.0153 23.6857C33.2615 22.2439 35.8515 21.4271 38.5185 21.3196C41.1854 21.2122 43.8328 21.8178 46.1877 23.0742C48.5426 24.3307 50.5198 26.1924 51.9156 28.4674C53.3113 30.7425 54.0751 33.3486 54.1282 36.0172C54.1814 38.6858 53.5218 41.3203 52.2177 43.6491C50.9135 45.9779 49.0119 47.9167 46.7089 49.2658C44.4058 50.615 41.7847 51.3255 39.1156 51.3242V51.3248Z" fill="url(#paint5_linear_2_670)"/>
<defs>
<linearGradient id="paint0_linear_2_670" x1="10.9514" y1="58.6379" x2="36.1454" y2="-8.66089" gradientUnits="userSpaceOnUse">
<stop offset="0.06" stop-color="#FF6800"/>
<stop offset="1" stop-color="#FFF100"/>
</linearGradient>
<linearGradient id="paint1_linear_2_670" x1="3.56837" y1="55.874" x2="28.7624" y2="-11.4251" gradientUnits="userSpaceOnUse">
<stop offset="0.06" stop-color="#FF6800"/>
<stop offset="1" stop-color="#FFF100"/>
</linearGradient>
<linearGradient id="paint2_linear_2_670" x1="-2.28" y1="53.6848" x2="22.914" y2="-13.6143" gradientUnits="userSpaceOnUse">
<stop offset="0.06" stop-color="#FF6800"/>
<stop offset="1" stop-color="#FFF100"/>
</linearGradient>
<linearGradient id="paint3_linear_2_670" x1="-0.261172" y1="54.4406" x2="24.9328" y2="-12.8585" gradientUnits="userSpaceOnUse">
<stop offset="0.06" stop-color="#FF6800"/>
<stop offset="1" stop-color="#FFF100"/>
</linearGradient>
<linearGradient id="paint4_linear_2_670" x1="13.8574" y1="59.726" x2="39.0514" y2="-7.57313" gradientUnits="userSpaceOnUse">
<stop offset="0.06" stop-color="#FF6800"/>
<stop offset="1" stop-color="#FFF100"/>
</linearGradient>
<linearGradient id="paint5_linear_2_670" x1="13.1702" y1="36.3233" x2="54.117" y2="36.3233" gradientUnits="userSpaceOnUse">
<stop stop-color="#9DE0F4"/>
<stop offset="1" stop-color="white"/>
</linearGradient>
</defs>
</svg>
